# xmcd CD database file
#
# Track frame offsets:
#	150
#	6605
#	11855
#	27390
#	41475
#	48825
#	57745
#	71178
#	75905
#	85843
#	92718
#	100420
#	103085
#	115480
#	123233
#	131918
#	140805
#	150168
#	157835
#	165980
#	170558
#
# Disc length: 2306 seconds
#
# Revision: 0
# Processed by: cddbd v1.5.2PL0 Copyright (c) Steve Scherf et al.
# Submitted via: CDex 1.51
#
DISCID=1a090015
DTITLE=Frank Sinatra - The Legendary Love Songs Of A Lifetime
DYEAR=1994
DGENRE=Jazz
TTITLE0=Red Roses For A Blue Lady
TTITLE1=Stardust
TTITLE2=Birth Of The Blues
TTITLE3=Some Enchanted Evening
TTITLE4=Exactly Like You
TTITLE5=Somebody Loves Me
TTITLE6=Again (This Couldn't Happen Again)
TTITLE7=Whispering (That I Love You)
TTITLE8=On A Slow Boat To China
TTITLE9=You Were Only Fooling
TTITLE10=Here I'll Stay (With You)
TTITLE11=Somebody Loves Me (Reprise)
TTITLE12=So In Love (Am I)
TTITLE13=Until
TTITLE14=Careless Hands
TTITLE15=Yes Indeed!
TTITLE16=My Darling, My Darling
TTITLE17=Powder Your Face With Sunshine
TTITLE18=When Day Is Done
TTITLE19=Blue Skies
TTITLE20=Credits
EXTD=YEAR: 1994
EXTT0=
EXTT1=
EXTT2=
EXTT3=
EXTT4=
EXTT5=
EXTT6=
EXTT7=
EXTT8=
EXTT9=
EXTT10=
EXTT11=
EXTT12=
EXTT13=
EXTT14=
EXTT15=
EXTT16=
EXTT17=
EXTT18=
EXTT19=
EXTT20=
PLAYORDER=
